<mxfile host="app.diagrams.net" modified="2024-03-09T17:21:16.486Z" agent="Mozilla/5.0 (Windows NT 10.0; Win64; x64) AppleWebKit/537.36 (KHTML, like Gecko) Chrome/122.0.0.0 Safari/537.36" etag="wKbKZt-hR_vL4LODsEzh" version="24.0.4" type="device">
  <diagram name="Page-1" id="gqJuW14rHEcDS8_YUCnv">
    <mxGraphModel dx="1235" dy="1024" grid="0" gridSize="10" guides="1" tooltips="1" connect="1" arrows="1" fold="1" page="0" pageScale="1" pageWidth="850" pageHeight="1100" math="0" shadow="0">
      <root>
        <mxCell id="0" />
        <mxCell id="1" parent="0" />
        <mxCell id="OsvJVgKIBt2g_kQ5gSSG-6" style="edgeStyle=orthogonalEdgeStyle;rounded=0;orthogonalLoop=1;jettySize=auto;html=1;exitX=0.25;exitY=1;exitDx=0;exitDy=0;" edge="1" parent="1" source="OsvJVgKIBt2g_kQ5gSSG-1">
          <mxGeometry relative="1" as="geometry">
            <mxPoint x="128" y="-386" as="targetPoint" />
          </mxGeometry>
        </mxCell>
        <mxCell id="OsvJVgKIBt2g_kQ5gSSG-7" style="edgeStyle=orthogonalEdgeStyle;rounded=0;orthogonalLoop=1;jettySize=auto;html=1;exitX=0.75;exitY=1;exitDx=0;exitDy=0;" edge="1" parent="1" source="OsvJVgKIBt2g_kQ5gSSG-1">
          <mxGeometry relative="1" as="geometry">
            <mxPoint x="135" y="-84" as="targetPoint" />
          </mxGeometry>
        </mxCell>
        <mxCell id="OsvJVgKIBt2g_kQ5gSSG-1" value="mux" style="shape=trapezoid;perimeter=trapezoidPerimeter;whiteSpace=wrap;html=1;fixedSize=1;direction=south;fillColor=#ffe6cc;strokeColor=#000000;rounded=0;strokeWidth=2;" vertex="1" parent="1">
          <mxGeometry x="208" y="-166" width="60" height="109" as="geometry" />
        </mxCell>
        <mxCell id="OsvJVgKIBt2g_kQ5gSSG-5" value="" style="edgeStyle=none;orthogonalLoop=1;jettySize=auto;html=1;rounded=0;" edge="1" parent="1" target="OsvJVgKIBt2g_kQ5gSSG-1">
          <mxGeometry width="80" relative="1" as="geometry">
            <mxPoint x="238" y="-27" as="sourcePoint" />
            <mxPoint x="310" y="-35" as="targetPoint" />
          </mxGeometry>
        </mxCell>
        <mxCell id="OsvJVgKIBt2g_kQ5gSSG-8" style="edgeStyle=orthogonalEdgeStyle;rounded=0;orthogonalLoop=1;jettySize=auto;html=1;exitX=0.25;exitY=1;exitDx=0;exitDy=0;entryX=0.5;entryY=0;entryDx=0;entryDy=0;" edge="1" parent="1" source="OsvJVgKIBt2g_kQ5gSSG-10" target="OsvJVgKIBt2g_kQ5gSSG-1">
          <mxGeometry relative="1" as="geometry">
            <mxPoint x="369" y="-139" as="targetPoint" />
          </mxGeometry>
        </mxCell>
        <mxCell id="OsvJVgKIBt2g_kQ5gSSG-9" style="edgeStyle=orthogonalEdgeStyle;rounded=0;orthogonalLoop=1;jettySize=auto;html=1;exitX=0.75;exitY=1;exitDx=0;exitDy=0;" edge="1" parent="1" source="OsvJVgKIBt2g_kQ5gSSG-10">
          <mxGeometry relative="1" as="geometry">
            <mxPoint x="374" y="-84" as="targetPoint" />
          </mxGeometry>
        </mxCell>
        <mxCell id="OsvJVgKIBt2g_kQ5gSSG-10" value="mux" style="shape=trapezoid;perimeter=trapezoidPerimeter;whiteSpace=wrap;html=1;fixedSize=1;direction=south;fillColor=#ffe6cc;strokeColor=#000000;rounded=0;strokeWidth=2;" vertex="1" parent="1">
          <mxGeometry x="447" y="-166" width="60" height="109" as="geometry" />
        </mxCell>
        <mxCell id="OsvJVgKIBt2g_kQ5gSSG-35" style="edgeStyle=orthogonalEdgeStyle;rounded=0;orthogonalLoop=1;jettySize=auto;html=1;exitX=0.25;exitY=1;exitDx=0;exitDy=0;entryX=0.5;entryY=0;entryDx=0;entryDy=0;" edge="1" parent="1" source="OsvJVgKIBt2g_kQ5gSSG-14" target="OsvJVgKIBt2g_kQ5gSSG-10">
          <mxGeometry relative="1" as="geometry" />
        </mxCell>
        <mxCell id="OsvJVgKIBt2g_kQ5gSSG-54" style="edgeStyle=orthogonalEdgeStyle;rounded=0;orthogonalLoop=1;jettySize=auto;html=1;exitX=0.5;exitY=0;exitDx=0;exitDy=0;" edge="1" parent="1" source="OsvJVgKIBt2g_kQ5gSSG-14" target="OsvJVgKIBt2g_kQ5gSSG-53">
          <mxGeometry relative="1" as="geometry" />
        </mxCell>
        <mxCell id="OsvJVgKIBt2g_kQ5gSSG-14" value="mux" style="shape=trapezoid;perimeter=trapezoidPerimeter;whiteSpace=wrap;html=1;fixedSize=1;direction=south;fillColor=#ffe6cc;strokeColor=#000000;rounded=0;strokeWidth=2;" vertex="1" parent="1">
          <mxGeometry x="726" y="-173" width="60" height="109" as="geometry" />
        </mxCell>
        <mxCell id="OsvJVgKIBt2g_kQ5gSSG-15" value="" style="edgeStyle=none;orthogonalLoop=1;jettySize=auto;html=1;rounded=0;" edge="1" parent="1" target="OsvJVgKIBt2g_kQ5gSSG-14">
          <mxGeometry width="80" relative="1" as="geometry">
            <mxPoint x="756" y="-34" as="sourcePoint" />
            <mxPoint x="828" y="-42" as="targetPoint" />
          </mxGeometry>
        </mxCell>
        <mxCell id="OsvJVgKIBt2g_kQ5gSSG-16" value="Load" style="text;html=1;align=center;verticalAlign=middle;resizable=0;points=[];autosize=1;strokeColor=none;fillColor=none;" vertex="1" parent="1">
          <mxGeometry x="736.5" y="-33" width="44" height="26" as="geometry" />
        </mxCell>
        <mxCell id="OsvJVgKIBt2g_kQ5gSSG-18" value="Down" style="text;html=1;align=center;verticalAlign=middle;resizable=0;points=[];autosize=1;strokeColor=none;fillColor=none;" vertex="1" parent="1">
          <mxGeometry x="425" y="73" width="48" height="26" as="geometry" />
        </mxCell>
        <mxCell id="OsvJVgKIBt2g_kQ5gSSG-21" style="edgeStyle=orthogonalEdgeStyle;rounded=0;orthogonalLoop=1;jettySize=auto;html=1;exitX=1;exitY=0.5;exitDx=0;exitDy=0;exitPerimeter=0;entryX=1;entryY=0.5;entryDx=0;entryDy=0;" edge="1" parent="1" source="OsvJVgKIBt2g_kQ5gSSG-19" target="OsvJVgKIBt2g_kQ5gSSG-10">
          <mxGeometry relative="1" as="geometry" />
        </mxCell>
        <mxCell id="OsvJVgKIBt2g_kQ5gSSG-19" value="" style="verticalLabelPosition=bottom;shadow=0;dashed=0;align=center;html=1;verticalAlign=top;shape=mxgraph.electrical.logic_gates.logic_gate;operation=and;rotation=-90;fillColor=#dae8fc;strokeColor=#6c8ebf;" vertex="1" parent="1">
          <mxGeometry x="439.5" y="4" width="75" height="60" as="geometry" />
        </mxCell>
        <mxCell id="OsvJVgKIBt2g_kQ5gSSG-23" value="" style="verticalLabelPosition=bottom;shadow=0;dashed=0;align=center;html=1;verticalAlign=top;shape=mxgraph.electrical.logic_gates.logic_gate;operation=or;negating=1;negSize=0.15;rotation=-90;fillColor=#d5e8d4;strokeColor=#82b366;" vertex="1" parent="1">
          <mxGeometry x="553" y="81" width="100" height="124" as="geometry" />
        </mxCell>
        <mxCell id="OsvJVgKIBt2g_kQ5gSSG-25" style="edgeStyle=orthogonalEdgeStyle;rounded=0;orthogonalLoop=1;jettySize=auto;html=1;exitX=1;exitY=0.5;exitDx=0;exitDy=0;exitPerimeter=0;entryX=0;entryY=0.75;entryDx=0;entryDy=0;entryPerimeter=0;" edge="1" parent="1" source="OsvJVgKIBt2g_kQ5gSSG-23" target="OsvJVgKIBt2g_kQ5gSSG-19">
          <mxGeometry relative="1" as="geometry" />
        </mxCell>
        <mxCell id="OsvJVgKIBt2g_kQ5gSSG-26" value="" style="endArrow=none;html=1;rounded=0;entryX=0.204;entryY=0.397;entryDx=0;entryDy=0;entryPerimeter=0;" edge="1" parent="1" target="OsvJVgKIBt2g_kQ5gSSG-23">
          <mxGeometry width="50" height="50" relative="1" as="geometry">
            <mxPoint x="589" y="191" as="sourcePoint" />
            <mxPoint x="608" y="177" as="targetPoint" />
          </mxGeometry>
        </mxCell>
        <mxCell id="OsvJVgKIBt2g_kQ5gSSG-27" value="" style="endArrow=none;html=1;rounded=0;entryX=0.212;entryY=0.597;entryDx=0;entryDy=0;entryPerimeter=0;" edge="1" parent="1" target="OsvJVgKIBt2g_kQ5gSSG-23">
          <mxGeometry width="50" height="50" relative="1" as="geometry">
            <mxPoint x="614" y="195" as="sourcePoint" />
            <mxPoint x="607" y="166" as="targetPoint" />
          </mxGeometry>
        </mxCell>
        <mxCell id="OsvJVgKIBt2g_kQ5gSSG-28" value="" style="endArrow=none;html=1;rounded=0;entryX=0.196;entryY=0.513;entryDx=0;entryDy=0;entryPerimeter=0;" edge="1" parent="1" target="OsvJVgKIBt2g_kQ5gSSG-23">
          <mxGeometry width="50" height="50" relative="1" as="geometry">
            <mxPoint x="604" y="191" as="sourcePoint" />
            <mxPoint x="609" y="176" as="targetPoint" />
          </mxGeometry>
        </mxCell>
        <mxCell id="OsvJVgKIBt2g_kQ5gSSG-32" value="Counter [4:0]" style="text;html=1;align=center;verticalAlign=middle;resizable=0;points=[];autosize=1;strokeColor=none;fillColor=none;" vertex="1" parent="1">
          <mxGeometry x="559.5" y="199" width="85" height="26" as="geometry" />
        </mxCell>
        <mxCell id="OsvJVgKIBt2g_kQ5gSSG-33" style="edgeStyle=orthogonalEdgeStyle;rounded=0;orthogonalLoop=1;jettySize=auto;html=1;exitX=0.25;exitY=1;exitDx=0;exitDy=0;" edge="1" parent="1">
          <mxGeometry relative="1" as="geometry">
            <mxPoint x="648" y="-87" as="targetPoint" />
            <mxPoint x="726" y="-87" as="sourcePoint" />
          </mxGeometry>
        </mxCell>
        <mxCell id="OsvJVgKIBt2g_kQ5gSSG-34" value="IN [4 : 0]" style="text;html=1;align=center;verticalAlign=middle;resizable=0;points=[];autosize=1;strokeColor=none;fillColor=none;" vertex="1" parent="1">
          <mxGeometry x="587" y="-101" width="60" height="26" as="geometry" />
        </mxCell>
        <mxCell id="OsvJVgKIBt2g_kQ5gSSG-36" value="0" style="text;html=1;align=center;verticalAlign=middle;resizable=0;points=[];autosize=1;strokeColor=none;fillColor=none;" vertex="1" parent="1">
          <mxGeometry x="726" y="-157" width="24" height="26" as="geometry" />
        </mxCell>
        <mxCell id="OsvJVgKIBt2g_kQ5gSSG-37" value="1" style="text;html=1;align=center;verticalAlign=middle;resizable=0;points=[];autosize=1;strokeColor=none;fillColor=none;" vertex="1" parent="1">
          <mxGeometry x="726" y="-101" width="24" height="26" as="geometry" />
        </mxCell>
        <mxCell id="OsvJVgKIBt2g_kQ5gSSG-40" value="0" style="text;html=1;align=center;verticalAlign=middle;resizable=0;points=[];autosize=1;strokeColor=none;fillColor=none;" vertex="1" parent="1">
          <mxGeometry x="447" y="-152.5" width="24" height="26" as="geometry" />
        </mxCell>
        <mxCell id="OsvJVgKIBt2g_kQ5gSSG-41" value="1" style="text;html=1;align=center;verticalAlign=middle;resizable=0;points=[];autosize=1;strokeColor=none;fillColor=none;" vertex="1" parent="1">
          <mxGeometry x="447" y="-96.5" width="24" height="26" as="geometry" />
        </mxCell>
        <mxCell id="OsvJVgKIBt2g_kQ5gSSG-42" value="0" style="text;html=1;align=center;verticalAlign=middle;resizable=0;points=[];autosize=1;strokeColor=none;fillColor=none;" vertex="1" parent="1">
          <mxGeometry x="208" y="-148" width="24" height="26" as="geometry" />
        </mxCell>
        <mxCell id="OsvJVgKIBt2g_kQ5gSSG-43" value="1" style="text;html=1;align=center;verticalAlign=middle;resizable=0;points=[];autosize=1;strokeColor=none;fillColor=none;" vertex="1" parent="1">
          <mxGeometry x="208" y="-92" width="24" height="26" as="geometry" />
        </mxCell>
        <mxCell id="OsvJVgKIBt2g_kQ5gSSG-46" value="&lt;font style=&quot;font-size: 18px;&quot;&gt;-1&lt;/font&gt;" style="ellipse;whiteSpace=wrap;html=1;aspect=fixed;fillColor=#f5f5f5;fontColor=#333333;strokeColor=#666666;" vertex="1" parent="1">
          <mxGeometry x="319" y="-108.5" width="51.5" height="51.5" as="geometry" />
        </mxCell>
        <mxCell id="OsvJVgKIBt2g_kQ5gSSG-48" value="&lt;font style=&quot;font-size: 18px;&quot;&gt;+1&lt;/font&gt;" style="ellipse;whiteSpace=wrap;html=1;aspect=fixed;fillColor=#f5f5f5;fontColor=#333333;strokeColor=#666666;" vertex="1" parent="1">
          <mxGeometry x="82" y="-108.5" width="51.5" height="51.5" as="geometry" />
        </mxCell>
        <mxCell id="OsvJVgKIBt2g_kQ5gSSG-50" value="D-FF" style="rounded=0;whiteSpace=wrap;html=1;direction=south;fillColor=#fff2cc;strokeColor=#000000;strokeWidth=2;" vertex="1" parent="1">
          <mxGeometry x="960" y="-166" width="65" height="89" as="geometry" />
        </mxCell>
        <mxCell id="OsvJVgKIBt2g_kQ5gSSG-80" style="edgeStyle=orthogonalEdgeStyle;rounded=0;orthogonalLoop=1;jettySize=auto;html=1;exitX=0;exitY=0.5;exitDx=0;exitDy=0;" edge="1" parent="1" source="OsvJVgKIBt2g_kQ5gSSG-52">
          <mxGeometry relative="1" as="geometry">
            <mxPoint x="908.0587948069851" y="47.05888815487128" as="targetPoint" />
          </mxGeometry>
        </mxCell>
        <mxCell id="OsvJVgKIBt2g_kQ5gSSG-52" value="" style="triangle;whiteSpace=wrap;html=1;" vertex="1" parent="1">
          <mxGeometry x="960" y="-113" width="15" height="23" as="geometry" />
        </mxCell>
        <mxCell id="OsvJVgKIBt2g_kQ5gSSG-53" value="D" style="text;html=1;align=center;verticalAlign=middle;resizable=0;points=[];autosize=1;strokeColor=none;fillColor=none;" vertex="1" parent="1">
          <mxGeometry x="960" y="-157" width="27" height="26" as="geometry" />
        </mxCell>
        <mxCell id="OsvJVgKIBt2g_kQ5gSSG-56" value="" style="endArrow=none;html=1;rounded=0;entryX=0.25;entryY=0;entryDx=0;entryDy=0;" edge="1" parent="1" target="OsvJVgKIBt2g_kQ5gSSG-50">
          <mxGeometry width="50" height="50" relative="1" as="geometry">
            <mxPoint x="125" y="-386" as="sourcePoint" />
            <mxPoint x="1084" y="-179" as="targetPoint" />
            <Array as="points">
              <mxPoint x="1033" y="-381" />
              <mxPoint x="1084" y="-381" />
              <mxPoint x="1087" y="-278" />
              <mxPoint x="1087" y="-144" />
            </Array>
          </mxGeometry>
        </mxCell>
        <mxCell id="OsvJVgKIBt2g_kQ5gSSG-57" value="" style="verticalLabelPosition=bottom;shadow=0;dashed=0;align=center;html=1;verticalAlign=top;shape=mxgraph.electrical.logic_gates.logic_gate;operation=and;rotation=-90;fillColor=#dae8fc;strokeColor=#6c8ebf;" vertex="1" parent="1">
          <mxGeometry x="201" y="-20" width="75" height="60" as="geometry" />
        </mxCell>
        <mxCell id="OsvJVgKIBt2g_kQ5gSSG-59" style="edgeStyle=orthogonalEdgeStyle;rounded=0;orthogonalLoop=1;jettySize=auto;html=1;entryX=0;entryY=0.75;entryDx=0;entryDy=0;entryPerimeter=0;" edge="1" parent="1" target="OsvJVgKIBt2g_kQ5gSSG-57">
          <mxGeometry relative="1" as="geometry">
            <mxPoint x="368" y="70" as="sourcePoint" />
          </mxGeometry>
        </mxCell>
        <mxCell id="OsvJVgKIBt2g_kQ5gSSG-60" value="" style="endArrow=none;html=1;rounded=0;entryX=0.204;entryY=0.397;entryDx=0;entryDy=0;entryPerimeter=0;" edge="1" parent="1">
          <mxGeometry width="50" height="50" relative="1" as="geometry">
            <mxPoint x="350.5" y="167" as="sourcePoint" />
            <mxPoint x="351.72800000000007" y="148.5999999999999" as="targetPoint" />
          </mxGeometry>
        </mxCell>
        <mxCell id="OsvJVgKIBt2g_kQ5gSSG-61" value="" style="endArrow=none;html=1;rounded=0;entryX=0.212;entryY=0.597;entryDx=0;entryDy=0;entryPerimeter=0;" edge="1" parent="1">
          <mxGeometry width="50" height="50" relative="1" as="geometry">
            <mxPoint x="375.5" y="171" as="sourcePoint" />
            <mxPoint x="376.528" y="147.79999999999995" as="targetPoint" />
          </mxGeometry>
        </mxCell>
        <mxCell id="OsvJVgKIBt2g_kQ5gSSG-62" value="" style="endArrow=none;html=1;rounded=0;entryX=0.196;entryY=0.513;entryDx=0;entryDy=0;entryPerimeter=0;" edge="1" parent="1">
          <mxGeometry width="50" height="50" relative="1" as="geometry">
            <mxPoint x="365.5" y="167" as="sourcePoint" />
            <mxPoint x="366.1120000000001" y="149.4000000000001" as="targetPoint" />
          </mxGeometry>
        </mxCell>
        <mxCell id="OsvJVgKIBt2g_kQ5gSSG-63" value="Counter [4:0]" style="text;html=1;align=center;verticalAlign=middle;resizable=0;points=[];autosize=1;strokeColor=none;fillColor=none;" vertex="1" parent="1">
          <mxGeometry x="321" y="175" width="85" height="26" as="geometry" />
        </mxCell>
        <mxCell id="OsvJVgKIBt2g_kQ5gSSG-64" value="Up" style="text;html=1;align=center;verticalAlign=middle;resizable=0;points=[];autosize=1;strokeColor=none;fillColor=none;" vertex="1" parent="1">
          <mxGeometry x="205.5" y="48" width="32" height="26" as="geometry" />
        </mxCell>
        <mxCell id="OsvJVgKIBt2g_kQ5gSSG-66" style="edgeStyle=orthogonalEdgeStyle;rounded=0;orthogonalLoop=1;jettySize=auto;html=1;exitX=1;exitY=0.5;exitDx=0;exitDy=0;exitPerimeter=0;" edge="1" parent="1" source="OsvJVgKIBt2g_kQ5gSSG-65">
          <mxGeometry relative="1" as="geometry">
            <mxPoint x="364" y="66.80001831054688" as="targetPoint" />
          </mxGeometry>
        </mxCell>
        <mxCell id="OsvJVgKIBt2g_kQ5gSSG-65" value="" style="shape=or;whiteSpace=wrap;html=1;rotation=-90;fillColor=#d5e8d4;strokeColor=#82b366;" vertex="1" parent="1">
          <mxGeometry x="333.5" y="81" width="60" height="80" as="geometry" />
        </mxCell>
        <mxCell id="OsvJVgKIBt2g_kQ5gSSG-76" value="" style="endArrow=none;html=1;rounded=0;entryX=0.212;entryY=0.597;entryDx=0;entryDy=0;entryPerimeter=0;" edge="1" parent="1">
          <mxGeometry width="50" height="50" relative="1" as="geometry">
            <mxPoint x="386" y="171.2" as="sourcePoint" />
            <mxPoint x="387.028" y="147.99999999999994" as="targetPoint" />
          </mxGeometry>
        </mxCell>
        <mxCell id="OsvJVgKIBt2g_kQ5gSSG-77" value="" style="endArrow=none;html=1;rounded=0;exitX=0.153;exitY=-0.192;exitDx=0;exitDy=0;exitPerimeter=0;" edge="1" parent="1" source="OsvJVgKIBt2g_kQ5gSSG-63">
          <mxGeometry width="50" height="50" relative="1" as="geometry">
            <mxPoint x="395.5" y="191" as="sourcePoint" />
            <mxPoint x="336" y="152" as="targetPoint" />
          </mxGeometry>
        </mxCell>
        <mxCell id="OsvJVgKIBt2g_kQ5gSSG-78" value="" style="endArrow=none;html=1;rounded=0;entryX=0.131;entryY=0.491;entryDx=0;entryDy=0;entryPerimeter=0;" edge="1" parent="1">
          <mxGeometry width="50" height="50" relative="1" as="geometry">
            <mxPoint x="237.95" y="87.32" as="sourcePoint" />
            <mxPoint x="237.9099999999998" y="27.995000000000182" as="targetPoint" />
          </mxGeometry>
        </mxCell>
        <mxCell id="OsvJVgKIBt2g_kQ5gSSG-79" value="!Down" style="text;html=1;align=center;verticalAlign=middle;resizable=0;points=[];autosize=1;strokeColor=none;fillColor=none;" vertex="1" parent="1">
          <mxGeometry x="212" y="85" width="52" height="26" as="geometry" />
        </mxCell>
        <mxCell id="OsvJVgKIBt2g_kQ5gSSG-81" value="CLK" style="text;html=1;align=center;verticalAlign=middle;resizable=0;points=[];autosize=1;strokeColor=none;fillColor=none;" vertex="1" parent="1">
          <mxGeometry x="891.5" y="51" width="41" height="26" as="geometry" />
        </mxCell>
      </root>
    </mxGraphModel>
  </diagram>
</mxfile>
